<svg xmlns="http://www.w3.org/2000/svg" width="441" height="93" viewBox="0 0 441 93">
    <g fill="none" fill-rule="evenodd">
        <g fill="#7B65FD" fill-rule="nonzero">
            <path d="M1228.205 414.418c5.087 0 9.165-4.028 9.165-8.978s-4.078-8.979-9.165-8.979h-17.743c-5.087 0-9.166 4.028-9.166 8.979 0 4.95 4.079 8.978 9.166 8.978h17.743zm-1.598-6.42h-14.505c-1.724 0-2.986-1.048-2.986-2.516 0-1.385 1.262-2.518 2.986-2.518h14.505c1.682 0 2.985 1.05 2.985 2.518 0 1.468-1.303 2.517-2.985 2.517zm-3.196 27.27v-10.781h15.22v-6.797h-38.554v6.797h15.178v10.782h8.156zm56.55-.419V396h-8.157v38.85h8.157zm-36.83-1.342l26.36-2.182v-6.796l-18.372 1.468v-8.307h15.22v-20.347h-23.209v6.628h15.304v7.258h-15.304v22.278zm76.183 1.09v-18.795h5.634v-3.524h-5.634v-15.942h-4.204v38.262h4.204zm-33.635-1.761l24.301-2.266v-3.524l-20.097 1.846v-12.628h16.776v-18.166h-20.98v3.524h16.775v11.118h-16.775v20.096zm76.478-22.656v-3.524h-28.969V396.42h-4.204v13.76h33.173zm2.396 8.391v-3.524h-38.176v3.524h38.176zm-1.976 16.027v-3.524h-29.389v-9.23h-4.204v12.754h33.593zm54.91 0v-38.262h-4.205v38.262h4.205zm-13.118-1.762v-34.738h-21.737v34.738l17.533-2.014v2.014h4.204zm-17.532-4.028v-27.186h13.328v25.634l-13.328 1.552zm72.484-19.802v-3.524c-7.736-.21-15.052-2.811-15.052-7.426v-1.846h-4.205v1.846c0 4.615-7.273 7.216-15.051 7.426v3.524c8.913-.168 15.388-3.147 17.154-6.377 1.681 3.23 8.198 6.209 17.154 6.377zm-.042 25.592v-3.524h-29.39v-2.77h28.759v-9.44h-14.38v-4.153h16.987v-3.524h-38.176v3.524h16.985v4.154h-14.379v3.524h28.759v2.56h-28.759v9.649h33.594zm45.87 0v-18.754h5.55v18.754h4.204v-38.262h-4.205v15.984h-5.55v-15.984h-4.204v38.262h4.205zm-7.82-1.888v-4.825c-3.785-3.105-7.484-9.104-7.484-18.208v-7.803h6.979v-3.525h-18.247v3.525h7.063v7.803c0 9.104-3.7 15.103-7.484 18.208v4.825c4.037-2.476 8.325-7.594 9.586-13.593 1.262 6 5.55 11.117 9.586 13.593zm58.44-13.929v-3.524h-29.178v-5.538h28.758v-12.376h-32.962v3.524h28.758v5.328h-28.758v12.586h33.383zm2.187 14.684v-3.524h-9.502v-8.894h-4.204v8.894h-10.68v-8.894h-4.204v8.894h-9.586v3.524h38.176zm39.858-14.264v-3.525h-29.179v-5.747h28.758v-12.586h-32.962v3.524h28.758v5.538h-28.758V419.2h33.383zm2.186 14.264v-3.524h-16.986v-8.475h-4.204v8.475h-16.986v3.524H1600zm-429.27 39.76c6.433 0 11.689-3.356 11.689-9.397v-4.448c0-6.125-5.256-9.44-11.689-9.44-6.474 0-11.73 3.315-11.73 9.44v4.448c0 6.041 5.256 9.397 11.73 9.397zm25.143 4.95v-28.234h-8.157v28.235h8.157zm-25.143-10.865c-2.228 0-3.868-1.175-3.868-3.063v-5.202c0-1.93 1.64-3.23 3.868-3.23 2.145 0 3.868 1.3 3.868 3.23v5.202c0 1.888-1.723 3.063-3.868 3.063zm25.815 21.48v-6.293h-27.58v-6.964h-8.073v13.257h35.653zm32.29-15.984v-8.6h2.817v8.6h6.727V449.94h-6.727v7.761h-2.817v-7.761h-6.6v22.865h6.6zm-28.295-.881c4.036-.965 7.778-3.315 10.006-7.049 2.186 3.567 5.886 5.664 9.88 6.63v-6.713c-3.405-1.385-6.516-3.818-6.516-10.95v-3.65h-6.854v3.65c0 7.216-3.11 9.985-6.516 11.37v6.712zM1230.559 489c4.625 0 8.24-3.272 8.24-7.636 0-4.447-3.615-7.593-8.24-7.593h-20.097c-4.54 0-8.157 3.146-8.157 7.593 0 4.364 3.616 7.636 8.157 7.636h20.097zm-2.27-5.832h-15.557c-1.345 0-2.396-.545-2.396-1.804 0-1.342 1.05-1.804 2.396-1.804h15.557c1.471 0 2.522.462 2.522 1.804 0 1.259-1.05 1.804-2.522 1.804zm50.705 5.37v-38.262h-4.205v38.263h4.205zm-24.218-1.132c6.391 0 11.142-3.986 11.142-9.86v-17.033c0-5.873-4.751-9.859-11.142-9.859-6.39 0-11.141 3.986-11.141 9.86v17.033c0 5.873 4.75 9.859 11.141 9.859zm0-3.524c-4.078 0-6.937-2.392-6.937-6.126v-17.453c0-3.65 2.86-6.125 6.937-6.125 4.079 0 6.938 2.475 6.938 6.125v17.453c0 3.734-2.86 6.126-6.938 6.126zm64.538 4.657v-18.796h5.634v-3.524h-5.634v-15.943h-4.204v38.263h4.204zm-33.635-1.763l24.301-2.265v-3.524l-20.097 1.846v-12.628h16.776v-18.166h-20.98v3.524h16.775v11.117h-16.775v20.096zm76.478-22.655v-3.524h-28.969V450.36h-4.204v13.761h33.173zm2.396 8.391v-3.524h-38.176v3.524h38.176zm-1.976 16.027v-3.525h-29.389v-9.23h-4.204v12.755h33.593zm47.384 0v-38.263h-4.204v9.398h-6.139v-.63c0-4.992-3.7-8.39-8.619-8.39-4.92 0-8.619 3.398-8.619 8.39v19.971c0 4.992 3.7 8.39 8.619 8.39 4.92 0 8.62-3.398 8.62-8.39v-1.51h6.138v11.034h4.204zm8.24 0v-38.263h-4.204v38.263h4.205zM1391 483.882c-2.565 0-4.415-1.888-4.415-4.867v-19.97c0-2.895 1.85-4.867 4.415-4.867s4.415 1.972 4.415 4.867v19.97c0 2.979-1.85 4.867-4.415 4.867zm14.758-9.902h-6.139v-10.782h6.139v10.782zm53.564-11.033v-3.525c-7.736-.21-15.052-2.81-15.052-7.425v-1.846h-4.205v1.846c0 4.615-7.273 7.216-15.051 7.425v3.525c8.913-.168 15.388-3.147 17.154-6.377 1.681 3.23 8.198 6.209 17.154 6.377zm-.042 25.592v-3.525h-29.39v-2.769h28.759v-9.44h-14.38v-4.153h16.987v-3.524h-38.176v3.524h16.985v4.154h-14.379v3.524h28.759v2.56h-28.759v9.649h33.594zm53.69-15.607v-10.363h5.381v-3.524h-5.381v-8.769h-4.205v22.656h4.205zm-10.007-1.637v-3.86c-5.087-.796-10.174-4.363-10.174-11.075v-1.427h9.754v-3.524h-23.713v3.524h9.754v1.427c0 6.712-5.087 10.279-10.174 11.076v3.86c5.465-.924 10.805-3.65 12.276-8.643 1.43 4.992 6.77 7.72 12.277 8.642zm10.007 17.663v-14.096h-32.29v3.524h28.085v10.572h4.205zm42.759-34.612v-3.524h-33.72v3.524h33.72zm.42 10.363v-3.524h-7.358l.967-6h-4.288l-.925 6h-11.478l-.925-6h-4.289l.925 6h-7.19v3.524h34.561zm-.799 23.83V475.7h-14.379v-4.448h16.986v-3.524h-38.176v3.524h16.986v4.448h-14.38v12.838l28.759-1.26v1.26h4.204zm-28.758-3.692v-5.622h24.554v4.53l-24.554 1.092zm64.16-21.9c3.91 0 7.063-2.56 7.063-6.168s-3.154-6.167-7.064-6.167h-19.676c-3.952 0-7.064 2.56-7.064 6.167 0 3.608 3.112 6.168 7.064 6.168h19.676zm-.59-3.525h-18.499c-1.976 0-3.447-1.006-3.447-2.685 0-1.636 1.471-2.6 3.447-2.6h18.5c1.934 0 3.447.964 3.447 2.6 0 1.679-1.513 2.685-3.447 2.685zm9.839 10.195v-3.524h-38.176v3.524H1600zm-1.976 18.922v-3.525h-29.389v-2.769h28.758v-9.44h-32.962v3.525h28.758v2.56h-28.758v9.649h33.593z" transform="translate(-1159 -396)"/>
        </g>
    </g>
</svg>
