<svg xmlns="http://www.w3.org/2000/svg" width="451" height="141" viewBox="0 0 451 141">
    <g fill="none" fill-rule="evenodd">
        <g fill-rule="nonzero">
            <g>
                <path fill="#7B65FD" d="M18.063 67.755c10.29 0 17.775-4.546 17.775-14.143v-7.937h-7.196v7.577c0 5.267-4.39 8.442-10.723 8.442-6.333 0-10.723-3.175-10.723-8.442V14.503c0-5.267 4.39-8.442 10.723-8.442 6.333 0 10.723 3.175 10.723 8.442v5.99h7.196v-6.35C35.838 4.546 28.21 0 17.92 0 7.63 0 0 4.546 0 14.143v39.47c0 9.596 7.772 14.142 18.063 14.142zm43.61 0c10.291 0 18.135-4.546 18.135-14.143v-39.47C79.808 4.547 71.964 0 61.673 0 51.383 0 43.61 4.546 43.61 14.143v39.47c0 9.596 7.772 14.142 18.063 14.142zm0-6.061c-6.332 0-10.866-3.175-10.866-8.442V14.503c0-5.267 4.534-8.442 10.866-8.442 6.333 0 10.939 3.175 10.939 8.442v38.749c0 5.267-4.606 8.442-10.939 8.442zm34.76 4.618V13.493L111.4 66.312h7.772l14.465-52.747v52.747h7.196V1.443h-10.147l-15.256 56.571-15.545-56.57H89.524v64.868h6.908zm62.176 0V1.443h-7.196v64.869h7.196zm17.92 0V16.235l20.581 50.077h8.132V1.443h-7.052v50.221l-20.654-50.22h-8.06v64.868h7.052zm56.78 1.443c10.29 0 18.062-4.546 18.062-14.143V33.048h-16.264v5.989h9.068v14.215c0 5.267-4.534 8.442-10.867 8.442-6.333 0-10.866-3.175-10.866-8.442V14.503c0-5.267 4.39-8.442 10.722-8.442 6.333 0 10.867 3.175 10.867 8.442v6.062h7.196v-6.422C251.227 4.546 243.455 0 233.164 0c-10.29 0-17.919 4.546-17.919 14.143v39.47c0 9.596 7.772 14.142 18.063 14.142zm64.12 0c10.506 0 18.35-4.546 18.35-14.143v-6.71c0-9.236-1.583-11.834-16.84-18.04-8.707-3.535-12.018-5.195-12.018-9.452v-5.05c0-5.268 4.174-8.299 10.651-8.299 6.405 0 10.65 3.175 10.65 8.442v5.773h7.197v-6.133C315.42 4.546 307.935 0 297.572 0c-10.435 0-17.847 4.546-17.847 14.143v5.411c0 6.495 1.511 9.814 16.192 15.803 11.226 4.546 12.666 5.628 12.666 12.916v4.979c0 5.267-4.318 8.442-11.01 8.442-6.478 0-11.011-3.175-11.011-8.442v-6.855h-7.197v7.215c0 9.597 7.556 14.143 18.063 14.143zm44.257 0c10.291 0 18.135-4.546 18.135-14.143v-39.47C359.821 4.547 351.977 0 341.686 0c-10.29 0-18.063 4.546-18.063 14.143v39.47c0 9.596 7.772 14.142 18.063 14.142zm0-6.061c-6.333 0-10.866-3.175-10.866-8.442V14.503c0-5.267 4.533-8.442 10.866-8.442 6.333 0 10.939 3.175 10.939 8.442v38.749c0 5.267-4.606 8.442-10.939 8.442zm45.41 6.061c10.29 0 18.135-4.546 18.135-14.143v-39.47C405.23 4.547 397.387 0 387.096 0s-18.063 4.546-18.063 14.143v39.47c0 9.596 7.772 14.142 18.063 14.142zm0-6.061c-6.333 0-10.867-3.175-10.867-8.442V14.503c0-5.267 4.534-8.442 10.867-8.442 6.333 0 10.938 3.175 10.938 8.442v38.749c0 5.267-4.605 8.442-10.938 8.442zm35.19 4.618V16.235l20.582 50.077H451V1.443h-7.052v50.221l-20.654-50.22h-8.06v64.868h7.052z" transform="translate(-735 -626) translate(735 626)"/>
                <path fill="#000" d="M67.814 139.156v-6.687H52.606v-1.54c0-2.597 1.775-3.944 7.196-9.572 5.422-5.628 7.916-8.515 7.916-14.287V105c0-6.638-5.325-10.246-11.994-10.246-6.764 0-11.658 3.608-11.658 10.246v3.416h8.252V105c0-2.02 1.151-3.56 3.406-3.56 2.16 0 3.359 1.54 3.359 3.56v2.069c0 3.223-1.104 5.484-6.525 10.246-8.156 7.216-8.924 9.958-8.924 13.614v8.226h24.18zm15.497 1.154c6.668 0 12.042-3.608 12.042-10.246V105c0-6.638-5.374-10.246-12.042-10.246-6.67 0-12.042 3.608-12.042 10.246v25.063c0 6.638 5.373 10.246 12.042 10.246zm0-6.686c-2.16 0-3.79-1.54-3.79-3.56V105c0-2.02 1.63-3.56 3.79-3.56 2.159 0 3.79 1.54 3.79 3.56v25.063c0 2.02-1.631 3.56-3.79 3.56zm39.772 5.532v-6.687h-15.209v-1.54c0-2.597 1.776-3.944 7.197-9.572 5.421-5.628 7.916-8.515 7.916-14.287V105c0-6.638-5.325-10.246-11.994-10.246-6.765 0-11.658 3.608-11.658 10.246v3.416h8.252V105c0-2.02 1.151-3.56 3.406-3.56 2.159 0 3.358 1.54 3.358 3.56v2.069c0 3.223-1.103 5.484-6.525 10.246-8.156 7.216-8.923 9.958-8.923 13.614v8.226h24.18zm15.736.192v-43.63h-8.012c0 2.5-2.783 4.57-5.661 4.57v6.253h5.037v32.807h8.636zm13.385-1.01v-8.13h-8.06v8.13h8.06zm21.878 1.972c6.668 0 12.042-3.608 12.042-10.246V105c0-6.638-5.374-10.246-12.042-10.246-6.67 0-12.042 3.608-12.042 10.246v25.063c0 6.638 5.373 10.246 12.042 10.246zm0-6.686c-2.16 0-3.79-1.54-3.79-3.56V105c0-2.02 1.63-3.56 3.79-3.56 2.158 0 3.79 1.54 3.79 3.56v25.063c0 2.02-1.632 3.56-3.79 3.56zm28.45 6.686c6.668 0 12.617-3.608 12.617-10.246v-10.535c0-6.879-3.598-10.39-10.267-10.39-2.447 0-4.462.865-5.9 1.78v-8.323h15.831V95.91h-24.132v23.475h8.3v-.818c.096-1.78 1.775-3.127 3.79-3.127 2.16 0 3.742 1.491 3.742 3.656v10.968c0 2.02-1.87 3.56-3.982 3.56-2.159 0-3.982-1.54-3.982-3.56v-3.704h-8.3v3.704c0 6.638 5.614 10.246 12.282 10.246zm24.995-1.972v-8.13h-8.06v8.13h8.06zm33.056.818v-6.687h-15.209v-1.54c0-2.597 1.775-3.944 7.197-9.572 5.42-5.628 7.916-8.515 7.916-14.287V105c0-6.638-5.326-10.246-11.994-10.246-6.765 0-11.659 3.608-11.659 10.246v3.416h8.252V105c0-2.02 1.152-3.56 3.407-3.56 2.159 0 3.358 1.54 3.358 3.56v2.069c0 3.223-1.104 5.484-6.525 10.246-8.034 7.108-8.899 9.875-8.923 13.45v8.39h24.18zm25.427.192v-6.398h3.55v-7.023h-3.55v-30.21h-12.138l-11.466 30.21v7.023h15.736v6.398h7.868zm-7.916-13.421h-7.772l7.772-21.022v21.022zm40.54 13.421v-43.63h-8.012c0 2.5-2.783 4.57-5.661 4.57v6.253h5.037v32.807h8.636zm17.08.962c6.764 0 12.521-3.608 12.521-10.246v-6.687c0-4.137-2.11-6.398-4.99-7.6 2.591-1.203 4.558-3.56 4.558-7.36V105c0-6.638-5.373-10.246-12.09-10.246-6.716 0-12.09 3.608-12.09 10.246v2.935h8.3v-3.271c0-2.02 1.583-3.56 3.79-3.56s3.79 1.54 3.79 3.56v4.185c0 2.02-2.11 3.319-4.078 3.463l-3.022.193v6.638l2.83.193c2.303.096 4.366 1.443 4.366 3.607v7.12c0 2.02-1.63 3.56-3.886 3.56-2.255 0-3.934-1.54-3.934-3.56v-5.147h-8.635v5.147c0 6.638 5.805 10.246 12.57 10.246zm25.09-30.21v-8.13h-8.06v8.13h8.06zm0 22.754v-8.082h-8.06v8.082h8.06zm17.224 6.494v-43.63h-8.012c0 2.5-2.782 4.57-5.661 4.57v6.253h5.038v32.807h8.635zm17.128.962c6.668 0 12.042-3.608 12.042-10.246V105c0-6.638-5.374-10.246-12.042-10.246-6.669 0-12.042 3.608-12.042 10.246v25.063c0 6.638 5.373 10.246 12.042 10.246zm0-6.686c-2.16 0-3.79-1.54-3.79-3.56V105c0-2.02 1.63-3.56 3.79-3.56 2.159 0 3.79 1.54 3.79 3.56v25.063c0 2.02-1.631 3.56-3.79 3.56z" transform="translate(-735 -626) translate(735 626)"/>
            </g>
        </g>
    </g>
</svg>
