<svg xmlns="http://www.w3.org/2000/svg" width="669" height="72" viewBox="0 0 669 72">
    <g fill="none" fill-rule="evenodd">
        <g fill="#7A65FF" fill-rule="nonzero">
            <path d="M650 579.297v-7.037h-10.063v-.135c5.27-3.654 9.552-4.973 9.552-12.078 0-5.683-4.589-8.66-11.285-8.66-7.139 0-11.728 2.876-12 10.724h8.668c0-2.3.884-3.721 3.162-3.721 1.495 0 2.651.846 2.651 2.706 0 1.59-1.836 2.537-2.991 3.45l-11.456 8.492v6.259h23.761zm18.975.473c9.212 0 12.986-5.548 12.986-14.174 0-8.627-3.774-14.209-12.986-14.209s-13.02 5.582-13.02 14.209c0 8.626 3.808 14.174 13.02 14.174zm0-6.969c-2.38 0-4.01-1.184-4.01-7.205 0-6.056 1.63-7.274 4.01-7.274s4.011 1.218 4.011 7.274c0 6.021-1.631 7.205-4.01 7.205zm42.772 6.496v-7.037h-10.062v-.135c5.269-3.654 9.552-4.973 9.552-12.078 0-5.683-4.59-8.66-11.286-8.66-7.139 0-11.728 2.876-12 10.724h8.669c0-2.3.883-3.721 3.161-3.721 1.496 0 2.651.846 2.651 2.706 0 1.59-1.835 2.537-2.99 3.45l-11.457 8.492v6.259h23.762zm29.174 0v-7.037h-5.44v-20.332h-8.362l-5.608 10.183h4.419v10.15h-5.405v7.036h20.396zm41.887-8.289v-19.655h-9.858v2.165h-6.05v4.398h6.05v1.387h-6.05v2.402h-8.023v-10.352h-9.858v15.427h22.096V563.7h1.835v7.307h9.858zm.34 8.965v-7.611h-24.271v-4.23h-9.858v11.841h34.13zm27.177 0l1.631-11.468 1.666 11.468h8.022l-2.04-11.197h2.176v11.197h7.139v-28.62h-7.139v10.318h-2.72v4.026l-1.223-6.732h3.025v-7.612h-17.778v7.612h3.025l-3.807 21.008h8.023zm26.752 0v-28.62h-7.138v28.62h7.138zm32.48-.203c9.96 0 13.019-6.123 13.019-14.885 0-6.867-3.637-13.498-13.121-13.498-7.411 0-12.782 3.586-12.782 9.98 0 5.886 4.42 9.27 10.844 9.27 2.447 0 4.929-.576 6.493-1.963.034 3.045-1.36 5.04-4.42 5.04-1.291 0-2.82-.338-3.16-1.826h-8.601c1.224 5.65 5.575 7.882 11.727 7.882zm-.204-14.986c-2.958 0-4.114-1.726-4.114-3.519 0-2.232 1.564-3.484 4.114-3.484 2.311 0 4.045 1.15 4.045 3.484 0 1.929-1.632 3.519-4.045 3.519zm41.65-6.327v-6.427h-6.664V550h-9.858v2.03h-6.798v6.427h23.32zm10.809 21.516v-28.62h-9.858v28.62h9.858zm-10.878 0v-6.427h-6.663v-2.335c4.623-.71 5.031-2.638 5.031-5.785 0-4.06-.645-6.123-9.96-6.123-9.115 0-9.938 2.006-9.96 5.953v.17c0 3.113.442 5.075 5.031 5.785v2.335h-6.39v6.427h22.911zm-11.592-13.092c-.933 0-1.044-.668-1.053-1.342v-.113c0-.88.068-1.522 1.053-1.522.986 0 1.054.643 1.054 1.522 0 .71-.068 1.455-1.054 1.455zm76.535 4.127v-19.655h-9.858v3.282h-3.671v4.16l-2.72-7.442h-12.577l-5.643 15.088h10.164l1.7-4.973 1.7 4.973h10.197l-1.734-4.702h2.584v9.27h9.858zm.34 8.965v-7.611h-24.271v-4.567h-9.858v12.178h34.129zm27.814-12.178v-4.601h-12.373v-1.354h12.373v-10.487h-22.095v4.567h12.373v1.353h-12.373v10.522h22.095zm11.694 4.567v-21.009h-9.858v21.009h9.858zm.34 7.611v-6.258h-24.271v-4.567h-9.858v10.825h34.129zm16.256-13.261c9.926 0 11.388-2.774 11.388-7.68 0-5.006-1.462-7.746-11.388-7.746-9.69 0-11.211 2.666-11.25 7.545l-.001.202c0 4.905 1.427 7.679 11.251 7.679zm23.252 4.296v-19.655h-9.858v19.655h9.858zm-23.252-10.487c-1.279 0-1.386-.414-1.393-1.152v-.22-.485c.007-.8.114-1.188 1.393-1.188 1.376 0 1.489.393 1.496 1.202v.678c-.007.746-.12 1.165-1.496 1.165zm23.592 19.452v-7.611h-24.271v-4.567h-9.858v12.178h34.129zm27.814 0v-7.104h-11.966v-6.123h9.79v3.586h4.012v9.641h9.858v-28.62h-9.858v11.367h-3.332v-3.078h-20.6v20.331h22.096zm-1.496-21.516v-7.104h-20.6v7.104h20.6zm36.925 7.984v-5.074h-7.819v-10.014h-9.858v15.088h17.677zm8.158 0v-15.088h-7.138v3.417h-4.793v5.413h4.793v6.258h7.138zm8.158 0v-15.088h-7.138v15.088h7.138zm-22.605 13.532l5.643-5.954 5.643 5.954h12.237l-11.931-12.178h-11.898l-11.931 12.178h12.237zm60.142-11.028l1.122-11.164v-6.428h-31.444v7.612h21.416l-1.054 9.98h9.96zm2.447 11.028v-7.611h-15.569v-7.95h-9.858v7.95h-8.702v7.611h34.13zm38.828-18.133v-4.702h-21.211v-1.082h21.211v-4.703h-32.09v10.487h32.09zm.68 6.022v-5.007h-33.449v5.007h33.45zm-.51 6.563c0-4.973-1.427-5.75-16.214-5.75-14.638 0-16.185.762-16.215 5.6v.15c0 4.84 1.37 5.684 15.335 5.716h1.76c13.964-.032 15.334-.876 15.334-5.716zm-15.549.778h-1.33c-5.131-.008-5.668-.11-5.7-.497l-.002-.05.002-.053c.003-.054.008-.114.008-.178l-.002-.066c0-.021-.002-.042-.003-.062l-.003-.059c-.026-.515.154-.625 6.365-.625 6.21 0 6.39.11 6.365.625l-.004.059-.004.095v.033c0 .064.005.124.008.178l.001.053-.001.05c-.033.387-.57.49-5.7.497zm32.928-9.709c9.416 0 9.96-2.537 9.96-6.597v-.237h1.665v-6.63h-6.696v-1.692h-9.858v1.692h-6.697v6.63h1.666v.237c0 4.06.612 6.597 9.96 6.597zm22.163-.406v-2.57h2.516v-7.105h-2.516v-4.06h-9.858v13.735h9.858zm-22.163-4.77c-.84 0-.912-.488-.918-1.581v-.178c0-1.184.034-1.692.918-1.692s.918.508.918 1.692c0 1.218-.034 1.76-.918 1.76zm22.163 19.655v-13.532h-32.973v7.612h23.115v5.92h9.858zm41.004 0v-7.611h-8.906v-3.417h6.458l1.122-11.164v-6.428h-31.443v7.612h21.415l-.578 5.447h-5.472v7.95h-3.06v-7.95h-8.498v7.95h-5.167v7.611H1295zm-646.904 26.905v-3.18h1.835v3.18h9.858v-13.735h-9.858v3.45h-1.835v-3.45H626v13.735h22.096zm-9.858-5.48h-2.38v-2.774h2.38v2.774zm21.891 20.365v-3.958h-23.251v-1.015h22.911v-8.559H626v3.823h22.911v.947H626v8.762h34.13zm39.508 0v-28.62h-9.858v28.62h9.858zm-11.694-21.008v-7.612h-22.095v7.612h22.095zm0 21.008v-7.612h-12.237v-4.567h12.237v-7.611h-22.095v19.79h22.095zm51.542 0v-28.62h-9.858v28.62h9.858zm-11.694 0v-28.62h-22.095v28.62h22.095zm-9.858-7.138h-2.38v-14.411h2.38v14.411zm61.4 7.138v-28.62h-9.858v28.62h9.858zm-11.694 0v-7.612h-12.237v-13.396h12.237v-7.612h-22.095v28.62h22.095zm28.358.237c6.969 0 10.198-2.537 10.64-10.69h2.686v10.453h9.858v-28.62h-9.858v10.555h-2.686c-.442-8.22-3.637-10.792-10.64-10.792-7.546 0-10.707 2.977-10.707 12.856v3.383c0 9.878 3.161 12.855 10.707 12.855zm.072-6.428h-.072c-1.36 0-1.53-.27-1.53-6.427v-3.383c0-6.157.17-6.428 1.53-6.428 1.312 0 1.516.252 1.53 5.79v4.658c-.013 5.436-.21 5.78-1.458 5.79zm62.144 6.191V611.48h2.515v-7.612h-2.515v-10.724h-9.858v28.62h9.858zm-12.238-9.303l1.36-12.923v-6.394h-22.096v7.612h13.02l-.34 11.705h8.056zm1.36 9.303v-7.612h-10.572v-8.964h-8.498v8.964h-3.026v7.612h22.096zm65.759-14.14v-3.993h-11.796v-1.184l.034.034h12.238l-5.303-4.432h4.147v-4.905h-32.09v4.905h4.181l-5.336 4.432h12.237l.034-.034v1.184h-11.796v3.992h33.45zm-13.802-6.834h-5.88l2.957-2.47 2.923 2.47zm13.122 20.974v-3.789h-20.192v-1.116h20.192v-8.187h-32.09v3.789h20.192v1.116h-20.192v8.187h32.09zm17.276-14.75c6.765 0 9.62-1.116 10.742-3.315h2.652v3.18h9.858v-13.735h-9.858v3.18h-2.652c-1.088-2.199-3.943-3.35-10.742-3.35-9.824 0-11.251 2.403-11.251 7.038 0 4.567 1.427 7.002 11.251 7.002zm.102-5.65c-1.427 0-1.461-.439-1.461-1.352 0-.914.034-1.387 1.461-1.387 1.366 0 1.456.433 1.462 1.27v.117c0 .913-.034 1.353-1.462 1.353zm23.15 20.4v-13.769h-9.858v1.929H929.01v-1.929h-9.858v13.77h33.79zm-9.858-5.582H929.01v-1.454h14.074v1.454zm49.705-3.383v-19.655h-9.858v4.466h-1.393v-4.466h-22.572v7.172h3.23l-3.876 7.916h9.824l2.04-4.431 2.04 4.431h9.858l-3.808-7.916h2.244v4.398h2.413v8.085h9.858zm.34 8.965v-7.612h-24.27v-4.567H959v12.18h34.13zm39.508 0v-28.62h-9.858v28.62h9.858zm-24.713 0l2.04-17.558 2.04 17.558h9.382l-4.351-28.62h-14.142l-4.35 28.62h9.381zm53.751-21.516v-6.427h-6.662v-2.03h-9.858v2.03h-6.799v6.427h23.32zm10.81 21.516v-28.62h-9.858v28.62h9.858zm-10.878 0v-6.427h-6.662V613c4.524-.695 5.012-2.557 5.03-5.586v-.199c0-4.06-.645-6.123-9.96-6.123-9.245 0-9.96 2.064-9.96 6.123 0 3.113.443 5.075 5.032 5.785v2.335h-6.39v6.427h22.91zm-11.591-13.092c-.986 0-1.054-.744-1.054-1.455 0-.88.068-1.522 1.054-1.522.934 0 1.044.577 1.053 1.385v.137c0 .71-.067 1.455-1.053 1.455zm49.884-7.544l-1.02-8.458h-6.119l1.02 8.458h6.119zm7.512 0l-1.02-8.458h-6.118l1.02 8.458h6.118zm20.2 20.433c9.11 0 14.175-5.785 14.04-11.637h-9.825c-.068 2.605-1.292 4.634-4.487 4.634-4.08 0-5.235-2.841-5.235-7.104v-.169c0-4.296 1.156-7.104 5.235-7.104 3.637 0 4.317 2.91 4.385 4.431h9.722c-.374-7.34-5.54-11.434-13.835-11.434-10.334 0-15.16 4.973-15.16 14.208 0 9.168 4.486 14.175 15.16 14.175zm33.593 0c10.708 0 14.821-5.311 14.821-14.175 0-8.897-4.487-14.208-14.82-14.208-10.369 0-14.822 5.311-14.822 14.208 0 8.864 4.147 14.175 14.821 14.175zm0-7.003c-4.147 0-5.167-2.841-5.167-7.104v-.169c0-4.296 1.054-7.104 5.167-7.104 4.113 0 5.201 2.808 5.201 7.104v.17c0 4.262-1.122 7.103-5.2 7.103zm29.65 6.53V606.1h.204l9.892 14.987h9.79v-27.369h-9.484v14.615h-.136l-9.484-14.615h-10.232v27.369h9.45zm42.907-.034V600.72h8.737v-7.003h-27.059v7.003h8.702v20.332h9.62zm40.426.034v-7.037h-17.03v-3.383h15.535v-6.53h-15.535v-3.416h16.554v-7.003h-26.344v27.369h26.82zm19.69-19.96l1.02-8.458h-6.119l-1.02 8.458h6.12zm-7.512 0l1.02-8.458h-6.12l-1.019 8.458h6.119z" transform="translate(-626 -550)"/>
        </g>
    </g>
</svg>
