<svg xmlns="http://www.w3.org/2000/svg" width="52" height="52" viewBox="0 0 52 52">
    <defs>
        <filter id="ug4dfwkhqa">
            <feColorMatrix in="SourceGraphic" values="0 0 0 0 0.000000 0 0 0 0 0.000000 0 0 0 0 0.000000 0 0 0 1.000000 0"/>
        </filter>
    </defs>
    <g fill="none" fill-rule="evenodd">
        <g filter="url(#ug4dfwkhqa)" transform="translate(-935 -928)">
            <g transform="translate(935 928)">
                <path d="M0 0H52V52H0z"/>
                <path fill="#F4F4F4" fill-rule="nonzero" d="M27.915 0h-2.83C19.515 0 15 4.498 15 10.047v16.57c0 5.549 4.515 10.047 10.085 10.047h2.83c5.57 0 10.085-4.498 10.085-10.047v-16.57C38 4.498 33.485 0 27.915 0zm-2.83 1.41h2.83c4.788 0 8.67 3.867 8.67 8.637v16.57c0 4.77-3.882 8.637-8.67 8.637h-2.83c-4.788 0-8.67-3.867-8.67-8.637v-16.57c0-4.77 3.882-8.637 8.67-8.637z"/>
                <rect width="3.185" height="6.698" x="24.908" y="5.288" fill="#FFF" rx="1.592"/>
                <path fill="#F4F4F4" fill-rule="nonzero" d="M33.484 44.402c.303-.246.749-.2.996.102.238.292.203.717-.073.967l-.03.025-7.835 6.354-7.917-6.352c-.304-.244-.352-.688-.107-.991.237-.293.661-.348.964-.13l.031.023 7.025 5.635 6.946-5.633z"/>
            </g>
        </g>
    </g>
</svg>
