<svg xmlns="http://www.w3.org/2000/svg" width="536" height="93" viewBox="0 0 536 93">
    <g fill="none" fill-rule="evenodd">
        <g fill="#000" fill-rule="nonzero">
            <path d="M1155.61 400.874v-.226c0-7.76-2.606-9.648-20.051-9.648-17.446 0-20.052 1.888-20.052 9.648 0 7.516 2.554 9.564 19.533 9.605h.519c17.27 0 19.998-1.973 20.05-9.38zm-19.33 1.073h-1.443c-6.982-.011-7.14-.203-7.14-1.3 0-1.174.169-1.342 7.862-1.342 7.444 0 7.842.157 7.86 1.232v.217c-.017 1.002-.39 1.182-7.14 1.193zm5.374 24.749v-6.292h14.587v-8.809h-41.365v8.81h14.587v6.29h12.191zm50.7 0v-8.809h-15.134v-4.572h15.133V391.21h-27.324v8.808h15.133v4.489h-15.133v22.189h27.324zm14.46 0V391.21h-12.19v35.486h12.19zm35.902 0v-8.809h-14.923v-4.572h14.923V391.21h-27.114v8.808h14.923v4.489h-14.923v22.189h27.114zm13.662 0v-12.752h3.111v-9.437h-3.11V391.21h-12.191v35.486h12.19zm50.742-21.686v-6.837h-27.493v-6.963h-12.19v13.8h39.683zm.84 7.844v-6.628h-41.364v6.628h41.364zm-.42 13.842v-7.76h-27.913v-4.614h-12.19v12.374h40.103zm69.87 0V391.21h-12.19v35.486h12.19zm-14.46 0V391.21h-27.325v35.486h27.324zm-12.191-8.85h-2.943v-17.87h2.943v17.87zm50.405-15.06l6.137-5.159 6.138 5.16h15.133l-13.83-11.577h-14.798l-13.914 11.577h15.134zm25.979 23.91v-4.698h-24.97v-1.384h24.97v-10.151h-13.747v-1.51h14.587v-4.95h-41.364v4.95h14.587v1.51h-13.747v4.698h24.97v1.384h-24.97v10.15h39.684zm37.46 0l2.017-14.22 2.06 14.22h9.92l-4.708-26.048h3.742v-9.438h-21.986v9.438h3.742l-4.709 26.048h9.921zm22.952 0V413.23h1.345v13.465h8.786V391.21h-8.786v13.213h-1.345V391.21h-8.786v35.486h8.786zm60.872 0v-9.438h-6.81v-3.314h5.549v-6.585h-25.811v-1.678h25.39V391.21h-38.842v6.417h25.39v1.678h-25.39v14.64h5.128v3.313h-6.81v9.438h42.206zm-19.001-9.438h-4.204v-3.314h4.204v3.314zm69.574 9.438v-9.438h-15.007v-3.314h13.746v-6.585h-25.811v-1.678h25.39V391.21h-38.842v6.417h25.39v1.678h-25.39v14.64h13.326v3.313h-15.008v9.438H1599zm-522.086 40.484c12.275 0 14.083-3.44 14.083-9.522 0-6.208-1.808-9.606-14.083-9.606-12.01 0-13.873 3.321-13.913 9.395l-.001.211c0 6.082 1.766 9.522 13.914 9.522zm28.754 5.327v-24.37h-12.19v24.37h12.19zm-28.754-13.003c-1.614 0-1.72-.535-1.724-1.486v-.236-.519c.005-1.033.11-1.535 1.724-1.535 1.734 0 1.846.506 1.85 1.548v.742c-.005.95-.123 1.486-1.85 1.486zm29.174 24.118v-9.437h-30.014v-5.663h-12.191v15.1h42.205zm40.316-18.456v-4.068h1.262v4.068h8.827v-17.03h-8.827v4.572h-1.262v-4.572h-8.827v17.03h8.827zm-22.574 0l1.724-5.327 1.723 5.327h10.257l-5.59-17.03h-12.654l-5.675 17.03h10.215zM1135.6 484c19.128 0 20.893-1.258 20.893-8.767 0-7.508-1.765-8.766-20.892-8.766-18.936 0-20.856 1.233-20.892 8.543v.223c0 7.509 1.765 8.767 20.892 8.767zm.765-7.55h-1.528c-6.792-.012-7.775-.187-7.915-.88l-.012-.078c-.006-.053-.01-.109-.01-.168v-.181c0-.06.004-.115.01-.169l.012-.077c.145-.719 1.195-.88 8.679-.88 7.483 0 8.533.161 8.679.88l.012.077c.01.08.01.166.01.26 0 .092 0 .178-.01.258l-.012.078c-.14.693-1.123.868-7.915.88zm42.242 7.466c9.71 0 13.746-3.691 13.746-15.94v-4.194c0-12.248-4.035-15.94-13.746-15.94-9.669 0-13.704 3.692-13.704 15.94v4.195c0 12.248 4.035 15.94 13.704 15.94zm28.207-.294v-35.486h-12.19v35.486h12.19zm-28.123-7.676h-.084c-1.668 0-1.918-.314-1.933-7.253v-5.627c.015-6.94.265-7.254 1.933-7.254 1.766 0 1.976.336 1.976 7.97v4.195c0 7.51-.204 7.957-1.892 7.97zm64.025 7.676v-8.808h-14.923v-4.572h14.923v-22.106h-27.114v8.809h14.923v4.488h-14.923v22.19h27.114zm13.662 0v-12.751h3.111v-9.438h-3.11v-13.297h-12.191v35.486h12.19zm50.742-21.686V455.1h-27.493v-6.963h-12.19v13.8h39.683zm.84 7.844v-6.627h-41.364v6.627h41.364zm-.42 13.842v-7.76h-27.913v-4.614h-12.19v12.374h40.103zm38.72.294c6.306 0 9.039-2.055 10.132-7.047h2.354v6.753h8.828v-35.486h-8.828v6.837h-2.312c-1.093-5.075-3.826-7.13-10.173-7.13-9.146 0-10.769 4.225-10.803 15.554l-.001 4.58c0 11.619 1.555 15.94 10.804 15.94zm31.403-.294v-35.486h-8.828v35.486h8.828zm-31.366-7.676h-.036c-.637 0-.713-.213-.717-4.375v-1.341-.923l.001-.328v-1.05l.001-.372v-4.777l-.001-.328v-.626l-.001-.297v-1.342c.004-4.162.08-4.375.717-4.375l.072.002c.57.021.64.375.645 4.373v1.342l-.001.297v.626l-.001.328v6.527l.001.625v1.639c-.004 4.08-.077 4.366-.68 4.375zm12.449-7.885h-1.682v-4.279h1.682v4.279zm42.418-8.348l6.137-5.159 6.138 5.16h15.133l-13.83-11.578h-14.798l-13.914 11.577h15.134zm25.979 23.91v-4.698h-24.97v-1.385h24.97v-10.15h-13.747v-1.51h14.587v-4.95h-41.364v4.95h14.587v1.51h-13.747v4.697h24.97v1.385h-24.97v10.15h39.684zm39.603-18.457l2.522-4.656 2.523 4.656h11.98l-4.33-7.97h3.658v-9.06h-27.493v9.06h3.615l-4.414 7.97h11.94zm29.679 0v-3.188h3.11v-8.808h-3.11v-5.034h-12.191v17.03h12.19zm0 18.456v-16.778h-40.777v9.438h28.586v7.34h12.19zm50.74-22.063v-5.83h-4.203v-1.762h4.204v-5.83h-39.684v5.83h4.204v1.761h-4.204v5.831h39.684zm-16.394-5.83h-6.894v-1.762h6.894v1.761zm16.395 27.893v-13.548h-13.746v-1.468h14.587v-5.789h-41.365v5.789h14.587v1.468h-13.747v13.548h39.684zm-13.41-5.788h-12.822v-2.055h12.822v2.055zm64.193-23.741c0-4.866-2.606-6.04-20.052-6.04-17.27 0-19.998 1.15-20.05 5.895l-.002.145c0 4.775 2.555 5.974 19.533 5.997h.52c17.445 0 20.051-1.174 20.051-5.997zm-18.987.754h-2.13c-6.418-.009-6.778-.109-6.795-.691v-.13c.017-.62.377-.721 6.795-.73h2.13c6.644.01 6.796.118 6.796.797 0 .638-.152.745-6.796.754zm19.618 11.074v-4.95h-41.365v4.95h41.365zm-.841 17.701v-4.697h-24.97v-1.385h24.97v-10.15h-39.684v4.697h24.97v1.385h-24.97v10.15h39.684z" transform="translate(-1063 -391)"/>
        </g>
    </g>
</svg>
